PathFileType	4	(X/Y/Z)	/Users/itak/Documents/Research/Walk-IL/dataset/trc/00433_00167.trc
DataRate	CameraRate	NumFrames	NumMarkers	Units	OrigDataRate	OrigDataStartFrame	OrigNumFrames
100.000000	100.000000	4	53	mm	100.000000	538	615
Frame#	Time	RPSI			LPSI			L3			STRN			T10			C7			CLAV			RBAK			LBAK			LSHO			LUPA			LAEL			LAOL			LWTS			LWPS			LFRA			LIFD			LHPS			LHTS			RSHO			RUPA			RAEL			RAOL			RWTS			RWPS			RFRA			RIFD			RHTS			RHPS			RBHD			LFHD			RFHD			LBHD			LHIP			RHIP			RASI			LASI			LKNE			LTHI			LANK			LTIP			LTOE			LMT1			LMT5			LHEE			RKNE			RTHI			RANK			RTIP			RTOE			RMT1			RMT5			RHEE			
		X1	Y1	Z1	X2	Y2	Z2	X3	Y3	Z3	X4	Y4	Z4	X5	Y5	Z5	X6	Y6	Z6	X7	Y7	Z7	X8	Y8	Z8	X9	Y9	Z9	X10	Y10	Z10	X11	Y11	Z11	X12	Y12	Z12	X13	Y13	Z13	X14	Y14	Z14	X15	Y15	Z15	X16	Y16	Z16	X17	Y17	Z17	X18	Y18	Z18	X19	Y19	Z19	X20	Y20	Z20	X21	Y21	Z21	X22	Y22	Z22	X23	Y23	Z23	X24	Y24	Z24	X25	Y25	Z25	X26	Y26	Z26	X27	Y27	Z27	X28	Y28	Z28	X29	Y29	Z29	X30	Y30	Z30	X31	Y31	Z31	X32	Y32	Z32	X33	Y33	Z33	X34	Y34	Z34	X35	Y35	Z35	X36	Y36	Z36	X37	Y37	Z37	X38	Y38	Z38	X39	Y39	Z39	X40	Y40	Z40	X41	Y41	Z41	X42	Y42	Z42	X43	Y43	Z43	X44	Y44	Z44	X45	Y45	Z45	X46	Y46	Z46	X47	Y47	Z47	X48	Y48	Z48	X49	Y49	Z49	X50	Y50	Z50	X51	Y51	Z51	X52	Y52	Z52	X53	Y53	Z53	

539	5.38	1247.152709960938	950.2354125976562	977.3388061523438	1337.865234375	948.6640014648438	867.4717407226562	1289.210815429688	1041.380249023438	936.4657592773438	1503.87939453125	1250.807739257812	1076.60498046875	1270.401000976562	1163.989868164062	913.8043823242188	1307.838256835938	1436.028198242188	945.7694702148438	1472.01416015625	1362.075927734375	1045.7470703125	1206.074096679688	1315.827514648438	994.072509765625	1340.6650390625	1384.827026367188	849.700927734375	1470.434448242188	1407.7080078125	842.4910888671875	1520.385986328125	1287.9140625	759.1066284179688	1568.548828125	1077.771850585938	742.8860473632812	1467.874877929688	1056.0205078125	758.5064086914062	1625.1923828125	876.501953125	814.68603515625	1614.400512695312	862.8436279296875	742.8338623046875	1595.0263671875	991.4423828125	742.8065185546875	1640.052978515625	708.8965454101562	807.3385009765625	1624.356079101562	782.7138671875	744.6739501953125	1648.280639648438	788.22802734375	810.9683837890625	1274.858520507812	1414.482177734375	1120.092163085938	1217.248168945312	1354.993041992188	1175.464599609375	1186.758666992188	1067.99560546875	1228.752685546875	1168.2333984375	1052.059814453125	1165.685913085938	1286.701293945312	863.2975463867188	1256.771118164062	1200.029418945312	851.2041015625	1262.03173828125	1182.253540039062	1010.0400390625	1238.874145507812	1275.961791992188	702.1240234375	1261.187133789062	1287.1875	763.1206665039062	1274.627075195312	1210.971923828125	763.2288208007812	1269.807006835938	1338.602905273438	1643.4189453125	1056.10498046875	1535.6474609375	1646.437255859375	994.9566650390625	1466.789184570312	1654.43994140625	1104.628662109375	1417.891235351562	1637.675659179688	898.177978515625	1517.4287109375	844.8923950195312	868.2687377929688	1251.712768554688	850.8406982421875	1161.528198242188	1370.364868164062	896.421142578125	1178.712768554688	1543.197387695312	890.0712280273438	989.1869506835938	1504.527099609375	422.4967346191406	943.2242431640625	1533.463256835938	579.6813354492188	927.4429931640625	1411.909057617188	23.71029090881348	896.6080322265625	1489.837890625	264.4135131835938	933.5499877929688	1522.433471679688	28.64502716064453	1105.652709960938	1450.575805664062	34.35687637329102	1071.715942382812	1529.323486328125	30.36139869689941	989.3035278320312	1339.4306640625	27.96862030029297	894.1589965820312	1300.97802734375	454.6337585449219	1169.48974609375	1306.015869140625	709.8209838867188	1217.237915039062	1265.718872070312	31.89887428283691	1149.055053710938	1289.227905273438	309.4034118652344	1180.534057617188	1469.988891601562	32.70029830932617	1232.81103515625	1436.646362304688	37.93887710571289	1166.81591796875	1361.798950195312	35.38881301879883	1244.30224609375	1237.390869140625	24.58224868774414	1074.866943359375	
540	5.39	1248.249633789062	950.4262084960938	978.9283447265625	1339.173461914062	948.8706665039062	869.2640380859375	1290.113525390625	1041.275634765625	938.5259399414062	1504.706787109375	1250.708618164062	1078.39501953125	1270.871948242188	1163.91796875	916.1665649414062	1308.290161132812	1435.980712890625	948.0145263671875	1472.77978515625	1361.940185546875	1047.513671875	1206.638549804688	1315.807861328125	996.6583251953125	1340.688842773438	1384.619995117188	851.9194946289062	1470.470092773438	1407.308715820312	843.9786376953125	1519.248291015625	1287.0419921875	760.3148803710938	1565.277709960938	1076.57421875	743.6929321289062	1464.56982421875	1055.97802734375	760.7430419921875	1619.370239257812	873.100341796875	811.7245483398438	1607.0966796875	860.88818359375	739.8355712890625	1590.249755859375	989.841796875	742.1458129882812	1630.513549804688	705.2500610351562	801.056396484375	1615.364501953125	780.5474853515625	740.0882568359375	1640.512817382812	784.3181762695312	806.0810546875	1275.875244140625	1414.321411132812	1122.525268554688	1218.422485351562	1354.81396484375	1178.095458984375	1187.34521484375	1067.791625976562	1230.619140625	1168.72021484375	1052.455078125	1167.493896484375	1284.843383789062	861.4473266601562	1257.0419921875	1198.004028320312	850.6566162109375	1262.490356445312	1182.254150390625	1009.890869140625	1240.4052734375	1271.67138671875	700.4119873046875	1260.038696289062	1283.739501953125	760.860595703125	1273.750122070312	1207.884033203125	763.0177612304688	1269.901245117188	1339.177124023438	1643.369262695312	1057.9501953125	1536.10595703125	1646.44580078125	996.4524536132812	1467.451538085938	1654.507080078125	1106.223510742188	1418.2060546875	1637.529052734375	899.8525390625	1518.932861328125	845.0723876953125	870.4028930664062	1252.008911132812	850.6610107421875	1162.605590820312	1370.703979492188	895.981201171875	1180.58251953125	1544.090454101562	889.9811401367188	991.4808959960938	1504.725341796875	422.4600524902344	944.1737060546875	1534.102172851562	579.5706787109375	928.936767578125	1411.905395507812	23.7840690612793	896.6488037109375	1489.923706054688	264.460693359375	934.1214599609375	1522.427368164062	28.64986610412598	1105.675170898438	1450.5322265625	34.33560943603516	1071.75390625	1529.256469726562	30.37948608398438	989.3802490234375	1339.431884765625	28.01337814331055	894.1636962890625	1299.320190429688	454.2786865234375	1168.656005859375	1306.342651367188	709.65576171875	1218.550048828125	1265.685913085938	31.59598731994629	1148.943969726562	1288.016357421875	309.043212890625	1179.884521484375	1470.032958984375	32.84542846679688	1232.818237304688	1436.70654296875	37.95635223388672	1166.885498046875	1361.785888671875	35.42364120483398	1244.404663085938	1237.518188476562	24.12501335144043	1074.71875	
541	5.4	1249.275390625	950.7061157226562	980.3634033203125	1340.45849609375	949.11376953125	870.943603515625	1291.0068359375	1041.313110351562	940.434814453125	1505.473266601562	1250.66650390625	1080.199340820312	1271.349243164062	1163.970703125	918.41552734375	1308.770629882812	1436.036987304688	950.2470703125	1473.512939453125	1361.8720703125	1049.306030273438	1207.19873046875	1315.910034179688	999.162109375	1340.768920898438	1384.551025390625	854.12841796875	1470.552856445312	1407.037353515625	845.5115356445312	1518.117797851562	1286.344848632812	761.5023193359375	1561.896606445312	1075.5693359375	744.414306640625	1461.210327148438	1056.125610351562	762.9439697265625	1613.494262695312	870.0947265625	808.8291625976562	1599.730834960938	859.2720336914062	736.9683227539062	1585.394897460938	988.4959716796875	741.4727172851562	1621.03125	702.1341552734375	795.0530395507812	1606.357788085938	778.7924194335938	735.7293090820312	1632.7412109375	780.8978881835938	801.3504638671875	1276.850463867188	1414.255004882812	1124.92578125	1219.51611328125	1354.7509765625	1180.650512695312	1187.782348632812	1067.720458984375	1232.44921875	1169.060302734375	1052.928833007812	1169.272583007812	1283.08056640625	859.9365234375	1257.433959960938	1196.116088867188	850.3207397460938	1263.095581054688	1182.175903320312	1009.885986328125	1241.949096679688	1267.780639648438	699.1422119140625	1259.246826171875	1280.557006835938	759.0088500976562	1273.12890625	1205.161254882812	763.2357177734375	1270.379272460938	1339.727661132812	1643.375122070312	1059.79248046875	1536.556762695312	1646.541015625	997.9751586914062	1468.109985351562	1654.67236328125	1107.85009765625	1418.5234375	1637.435668945312	901.5519409179688	1520.37109375	845.2499389648438	872.5220947265625	1252.169067382812	850.6090087890625	1163.587036132812	1370.893798828125	895.7077026367188	1182.3623046875	1544.903198242188	889.9229125976562	993.7499389648438	1504.847900390625	422.4380798339844	945.1243896484375	1534.666625976562	579.4754028320312	930.4304809570312	1411.89794921875	23.87030601501465	896.701416015625	1489.972900390625	264.5466613769531	934.691650390625	1522.425659179688	28.6540355682373	1105.703491210938	1450.486328125	34.31515884399414	1071.80126953125	1529.184326171875	30.39721488952637	989.4635009765625	1339.434326171875	28.06182289123535	894.1731567382812	1297.742431640625	454.0951232910156	1168.031494140625	1306.29833984375	709.65185546875	1219.61669921875	1265.607055664062	31.34153747558594	1148.886596679688	1286.826782226562	308.8401794433594	1179.412719726562	1470.04296875	32.9926643371582	1232.78759765625	1436.71337890625	38.008544921875	1166.945922851562	1361.7470703125	35.4569091796875	1244.502563476562	1237.587890625	23.80628395080566	1074.637329101562	
542	5.41	1250.2275390625	951.0675659179688	981.6566162109375	1341.70703125	949.3902587890625	872.5215454101562	1291.885131835938	1041.485595703125	942.1956787109375	1506.177856445312	1250.67626953125	1082.011352539062	1271.837890625	1164.142944335938	920.5379028320312	1309.281005859375	1436.187622070312	952.4561157226562	1474.2138671875	1361.8671875	1051.117065429688	1207.755493164062	1316.1220703125	1001.572204589844	1340.914306640625	1384.615600585938	856.3201293945312	1470.693969726562	1406.896118164062	847.0916137695312	1517.020141601562	1285.837158203125	762.6675415039062	1558.427612304688	1074.763916015625	745.0486450195312	1457.812622070312	1056.463134765625	765.0885620117188	1607.590576171875	867.48828125	806.0415649414062	1592.354248046875	857.98486328125	734.2677001953125	1580.489379882812	987.40673828125	740.798095703125	1611.632568359375	699.5308227539062	789.413818359375	1597.385498046875	777.426025390625	731.655517578125	1624.992797851562	777.9581909179688	796.8469848632812	1277.778686523438	1414.27734375	1127.277221679688	1220.5234375	1354.80224609375	1183.115234375	1188.072509765625	1067.777587890625	1234.237182617188	1169.256958007812	1053.470336914062	1171.016845703125	1281.429443359375	858.7646484375	1257.969604492188	1194.377807617188	850.1820068359375	1263.849243164062	1182.018310546875	1010.015747070312	1243.499389648438	1264.311767578125	698.2758178710938	1258.828369140625	1277.680786132812	757.5805053710938	1272.815063476562	1202.817626953125	763.8350830078125	1271.229248046875	1340.256591796875	1643.42626953125	1061.63134765625	1537.001831054688	1646.712524414062	999.526611328125	1468.763305664062	1654.922119140625	1109.507080078125	1418.845458984375	1637.388916015625	903.2791137695312	1521.716918945312	845.4249877929688	874.609375	1252.204833984375	850.6585083007812	1164.479125976562	1370.9521484375	895.5863647460938	1184.053955078125	1545.637451171875	889.8937377929688	995.9780883789062	1504.880981445312	422.4315490722656	946.0547485351562	1535.140991210938	579.395751953125	931.8948974609375	1411.8837890625	23.9654483795166	896.765625	1489.974975585938	264.6702575683594	935.2476196289062	1522.427124023438	28.65796661376953	1105.735107421875	1450.4384765625	34.29603576660156	1071.855712890625	1529.108154296875	30.4159049987793	989.5498657226562	1339.436401367188	28.11142158508301	894.1860961914062	1296.261108398438	454.0510559082031	1167.619506835938	1305.853515625	709.7893676757812	1220.4150390625	1265.489990234375	31.12560844421387	1148.878295898438	1285.673217773438	308.76611328125	1179.1162109375	1470.024536132812	33.11880111694336	1232.73095703125	1436.673095703125	38.0820198059082	1167.002319335938	1361.682250976562	35.47090911865234	1244.607177734375	1237.61083984375	23.59915161132812	1074.61376953125	
